<svg viewBox="0 0 1024 1024" focusable="false" xmlns="http://www.w3.org/2000/svg"><path d="M722.3 284.12H293.47a22.42 22.42 0 00-22.37 22.34v90.14h473.58v-90.14a22.42 22.42 0 00-22.36-22.34zm-199.47 80.63a19.46 19.46 0 110-38.87 19.46 19.46 0 010 38.87zm74.86 0a19.44 19.44 0 11.04-38.87 19.44 19.44 0 01-.04 38.87zm72.3 0a19.44 19.44 0 11.03-38.87 19.44 19.44 0 01-.04 38.87zM271.1 721.72a22.38 22.38 0 0022.35 22.34H722.3a22.42 22.42 0 0022.36-22.34V434.83H271.11v286.89zm328.52-167.43a19.13 19.13 0 0127.04-27.03l44.6 44.6a18.98 18.98 0 015.6 13.77 19.07 19.07 0 01-5.6 13.76L626.7 644a19.09 19.09 0 01-27.04-27.03L631 585.65l-31.36-31.36zM453.41 672.95L527 492.61a19.13 19.13 0 0135.41 14.43L488.8 687.4a19.09 19.09 0 01-24.93 10.49 19.09 19.09 0 01-10.46-24.93zm-98.29-101.07l44.6-44.6a19.13 19.13 0 0127.04 27.03l-31.33 31.34 31.33 31.33a19.13 19.13 0 01-27.03 27.03l-44.6-44.6a18.96 18.96 0 01-5.58-13.76 18.8 18.8 0 015.57-13.77z" /><path d="M512 20.48c-271.11 0-491.52 220.47-491.52 491.5 0 271.05 220.4 491.52 491.52 491.52 271 0 491.52-220.47 491.52-491.52 0-271.03-220.53-491.5-491.52-491.5zm0 951.32c-253.6 0-459.86-206.32-459.86-459.82C52.14 258.46 258.4 52.12 512 52.12c253.5 0 459.76 206.32 459.76 459.86 0 253.5-206.26 459.82-459.76 459.82z" /></svg>